<?xml version="1.0" encoding="utf-8" standalone="no"?>
<!DOCTYPE svg PUBLIC "-//W3C//DTD SVG 1.1//EN"
  "http://www.w3.org/Graphics/SVG/1.1/DTD/svg11.dtd">
<svg xmlns:xlink="http://www.w3.org/1999/xlink" width="460.528047pt" height="376.234375pt" viewBox="0 0 460.528047 376.234375" xmlns="http://www.w3.org/2000/svg" version="1.1">
 <metadata>
  <rdf:RDF xmlns:dc="http://purl.org/dc/elements/1.1/" xmlns:cc="http://creativecommons.org/ns#" xmlns:rdf="http://www.w3.org/1999/02/22-rdf-syntax-ns#">
   <cc:Work>
    <dc:type rdf:resource="http://purl.org/dc/dcmitype/StillImage"/>
    <dc:date>2022-12-20T22:31:36.171885</dc:date>
    <dc:format>image/svg+xml</dc:format>
    <dc:creator>
     <cc:Agent>
      <dc:title>Matplotlib v3.6.2, https://matplotlib.org/</dc:title>
     </cc:Agent>
    </dc:creator>
   </cc:Work>
  </rdf:RDF>
 </metadata>
 <defs>
  <style type="text/css">*{stroke-linejoin: round; stroke-linecap: butt}</style>
 </defs>
 <g id="figure_1">
  <g id="patch_1">
   <path d="M 0 376.234375 
L 460.528047 376.234375 
L 460.528047 0 
L 0 0 
z
" style="fill: #ffffff"/>
  </g>
  <g id="axes_1">
   <g id="patch_2">
    <path d="M 61.62625 307.506375 
L 418.74625 307.506375 
L 418.74625 41.394375 
L 61.62625 41.394375 
z
" style="fill: #ffffff"/>
   </g>
   <g id="patch_3">
    <path d="M 77.858977 307.506375 
L 80.461419 307.506375 
L 80.461419 307.506375 
L 77.858977 307.506375 
z
" clip-path="url(#pbaa28456c3)" style="fill: #06bcc1; opacity: 0.8"/>
   </g>
   <g id="patch_4">
    <path d="M 81.112029 307.506375 
L 83.71447 307.506375 
L 83.71447 307.506375 
L 81.112029 307.506375 
z
" clip-path="url(#pbaa28456c3)" style="fill: #06bcc1; opacity: 0.8"/>
   </g>
   <g id="patch_5">
    <path d="M 84.36508 307.506375 
L 86.967522 307.506375 
L 86.967522 307.506375 
L 84.36508 307.506375 
z
" clip-path="url(#pbaa28456c3)" style="fill: #06bcc1; opacity: 0.8"/>
   </g>
   <g id="patch_6">
    <path d="M 87.618132 307.506375 
L 90.220573 307.506375 
L 90.220573 307.506375 
L 87.618132 307.506375 
z
" clip-path="url(#pbaa28456c3)" style="fill: #06bcc1; opacity: 0.8"/>
   </g>
   <g id="patch_7">
    <path d="M 90.871184 307.506375 
L 93.473625 307.506375 
L 93.473625 307.506375 
L 90.871184 307.506375 
z
" clip-path="url(#pbaa28456c3)" style="fill: #06bcc1; opacity: 0.8"/>
   </g>
   <g id="patch_8">
    <path d="M 94.124235 307.506375 
L 96.726676 307.506375 
L 96.726676 307.506375 
L 94.124235 307.506375 
z
" clip-path="url(#pbaa28456c3)" style="fill: #06bcc1; opacity: 0.8"/>
   </g>
   <g id="patch_9">
    <path d="M 97.377287 307.506375 
L 99.979728 307.506375 
L 99.979728 307.506375 
L 97.377287 307.506375 
z
" clip-path="url(#pbaa28456c3)" style="fill: #06bcc1; opacity: 0.8"/>
   </g>
   <g id="patch_10">
    <path d="M 100.630338 307.506375 
L 103.232779 307.506375 
L 103.232779 307.506375 
L 100.630338 307.506375 
z
" clip-path="url(#pbaa28456c3)" style="fill: #06bcc1; opacity: 0.8"/>
   </g>
   <g id="patch_11">
    <path d="M 103.88339 307.506375 
L 106.485831 307.506375 
L 106.485831 307.506375 
L 103.88339 307.506375 
z
" clip-path="url(#pbaa28456c3)" style="fill: #06bcc1; opacity: 0.8"/>
   </g>
   <g id="patch_12">
    <path d="M 107.136441 307.506375 
L 109.738883 307.506375 
L 109.738883 307.506375 
L 107.136441 307.506375 
z
" clip-path="url(#pbaa28456c3)" style="fill: #06bcc1; opacity: 0.8"/>
   </g>
   <g id="patch_13">
    <path d="M 110.389493 307.506375 
L 112.991934 307.506375 
L 112.991934 307.506375 
L 110.389493 307.506375 
z
" clip-path="url(#pbaa28456c3)" style="fill: #06bcc1; opacity: 0.8"/>
   </g>
   <g id="patch_14">
    <path d="M 113.642544 307.506375 
L 116.244986 307.506375 
L 116.244986 307.506375 
L 113.642544 307.506375 
z
" clip-path="url(#pbaa28456c3)" style="fill: #06bcc1; opacity: 0.8"/>
   </g>
   <g id="patch_15">
    <path d="M 116.895596 307.506375 
L 119.498037 307.506375 
L 119.498037 307.506375 
L 116.895596 307.506375 
z
" clip-path="url(#pbaa28456c3)" style="fill: #06bcc1; opacity: 0.8"/>
   </g>
   <g id="patch_16">
    <path d="M 120.148648 307.506375 
L 122.751089 307.506375 
L 122.751089 307.506375 
L 120.148648 307.506375 
z
" clip-path="url(#pbaa28456c3)" style="fill: #06bcc1; opacity: 0.8"/>
   </g>
   <g id="patch_17">
    <path d="M 123.401699 307.506375 
L 126.00414 307.506375 
L 126.00414 307.506375 
L 123.401699 307.506375 
z
" clip-path="url(#pbaa28456c3)" style="fill: #06bcc1; opacity: 0.8"/>
   </g>
   <g id="patch_18">
    <path d="M 126.654751 307.506375 
L 129.257192 307.506375 
L 129.257192 307.506375 
L 126.654751 307.506375 
z
" clip-path="url(#pbaa28456c3)" style="fill: #06bcc1; opacity: 0.8"/>
   </g>
   <g id="patch_19">
    <path d="M 129.907802 307.506375 
L 132.510243 307.506375 
L 132.510243 307.506375 
L 129.907802 307.506375 
z
" clip-path="url(#pbaa28456c3)" style="fill: #06bcc1; opacity: 0.8"/>
   </g>
   <g id="patch_20">
    <path d="M 133.160854 307.506375 
L 135.763295 307.506375 
L 135.763295 307.506375 
L 133.160854 307.506375 
z
" clip-path="url(#pbaa28456c3)" style="fill: #06bcc1; opacity: 0.8"/>
   </g>
   <g id="patch_21">
    <path d="M 136.413905 307.506375 
L 139.016347 307.506375 
L 139.016347 307.506375 
L 136.413905 307.506375 
z
" clip-path="url(#pbaa28456c3)" style="fill: #06bcc1; opacity: 0.8"/>
   </g>
   <g id="patch_22">
    <path d="M 139.666957 307.506375 
L 142.269398 307.506375 
L 142.269398 307.506375 
L 139.666957 307.506375 
z
" clip-path="url(#pbaa28456c3)" style="fill: #06bcc1; opacity: 0.8"/>
   </g>
   <g id="patch_23">
    <path d="M 142.920008 307.506375 
L 145.52245 307.506375 
L 145.52245 307.506375 
L 142.920008 307.506375 
z
" clip-path="url(#pbaa28456c3)" style="fill: #06bcc1; opacity: 0.8"/>
   </g>
   <g id="patch_24">
    <path d="M 146.17306 307.506375 
L 148.775501 307.506375 
L 148.775501 307.506375 
L 146.17306 307.506375 
z
" clip-path="url(#pbaa28456c3)" style="fill: #06bcc1; opacity: 0.8"/>
   </g>
   <g id="patch_25">
    <path d="M 149.426112 307.506375 
L 152.028553 307.506375 
L 152.028553 307.506375 
L 149.426112 307.506375 
z
" clip-path="url(#pbaa28456c3)" style="fill: #06bcc1; opacity: 0.8"/>
   </g>
   <g id="patch_26">
    <path d="M 152.679163 307.506375 
L 155.281604 307.506375 
L 155.281604 307.506375 
L 152.679163 307.506375 
z
" clip-path="url(#pbaa28456c3)" style="fill: #06bcc1; opacity: 0.8"/>
   </g>
   <g id="patch_27">
    <path d="M 155.932215 307.506375 
L 158.534656 307.506375 
L 158.534656 307.506375 
L 155.932215 307.506375 
z
" clip-path="url(#pbaa28456c3)" style="fill: #06bcc1; opacity: 0.8"/>
   </g>
   <g id="patch_28">
    <path d="M 159.185266 307.506375 
L 161.787707 307.506375 
L 161.787707 307.506375 
L 159.185266 307.506375 
z
" clip-path="url(#pbaa28456c3)" style="fill: #06bcc1; opacity: 0.8"/>
   </g>
   <g id="patch_29">
    <path d="M 162.438318 307.506375 
L 165.040759 307.506375 
L 165.040759 307.506375 
L 162.438318 307.506375 
z
" clip-path="url(#pbaa28456c3)" style="fill: #06bcc1; opacity: 0.8"/>
   </g>
   <g id="patch_30">
    <path d="M 165.691369 307.506375 
L 168.293811 307.506375 
L 168.293811 307.506375 
L 165.691369 307.506375 
z
" clip-path="url(#pbaa28456c3)" style="fill: #06bcc1; opacity: 0.8"/>
   </g>
   <g id="patch_31">
    <path d="M 168.944421 307.506375 
L 171.546862 307.506375 
L 171.546862 307.506375 
L 168.944421 307.506375 
z
" clip-path="url(#pbaa28456c3)" style="fill: #06bcc1; opacity: 0.8"/>
   </g>
   <g id="patch_32">
    <path d="M 172.197472 307.506375 
L 174.799914 307.506375 
L 174.799914 307.506375 
L 172.197472 307.506375 
z
" clip-path="url(#pbaa28456c3)" style="fill: #06bcc1; opacity: 0.8"/>
   </g>
   <g id="patch_33">
    <path d="M 175.450524 307.506375 
L 178.052965 307.506375 
L 178.052965 307.506375 
L 175.450524 307.506375 
z
" clip-path="url(#pbaa28456c3)" style="fill: #06bcc1; opacity: 0.8"/>
   </g>
   <g id="patch_34">
    <path d="M 178.703576 307.506375 
L 181.306017 307.506375 
L 181.306017 307.483343 
L 178.703576 307.483343 
z
" clip-path="url(#pbaa28456c3)" style="fill: #06bcc1; opacity: 0.8"/>
   </g>
   <g id="patch_35">
    <path d="M 181.956627 307.506375 
L 184.559068 307.506375 
L 184.559068 307.483343 
L 181.956627 307.483343 
z
" clip-path="url(#pbaa28456c3)" style="fill: #06bcc1; opacity: 0.8"/>
   </g>
   <g id="patch_36">
    <path d="M 185.209679 307.506375 
L 187.81212 307.506375 
L 187.81212 307.391217 
L 185.209679 307.391217 
z
" clip-path="url(#pbaa28456c3)" style="fill: #06bcc1; opacity: 0.8"/>
   </g>
   <g id="patch_37">
    <path d="M 188.46273 307.506375 
L 191.065171 307.506375 
L 191.065171 307.345154 
L 188.46273 307.345154 
z
" clip-path="url(#pbaa28456c3)" style="fill: #06bcc1; opacity: 0.8"/>
   </g>
   <g id="patch_38">
    <path d="M 191.715782 307.506375 
L 194.318223 307.506375 
L 194.318223 306.769363 
L 191.715782 306.769363 
z
" clip-path="url(#pbaa28456c3)" style="fill: #06bcc1; opacity: 0.8"/>
   </g>
   <g id="patch_39">
    <path d="M 194.968833 307.506375 
L 197.571275 307.506375 
L 197.571275 306.562078 
L 194.968833 306.562078 
z
" clip-path="url(#pbaa28456c3)" style="fill: #06bcc1; opacity: 0.8"/>
   </g>
   <g id="patch_40">
    <path d="M 198.221885 307.506375 
L 200.824326 307.506375 
L 200.824326 304.903801 
L 198.221885 304.903801 
z
" clip-path="url(#pbaa28456c3)" style="fill: #06bcc1; opacity: 0.8"/>
   </g>
   <g id="patch_41">
    <path d="M 201.474936 307.506375 
L 204.077378 307.506375 
L 204.077378 303.844347 
L 201.474936 303.844347 
z
" clip-path="url(#pbaa28456c3)" style="fill: #06bcc1; opacity: 0.8"/>
   </g>
   <g id="patch_42">
    <path d="M 204.727988 307.506375 
L 207.330429 307.506375 
L 207.330429 300.735077 
L 204.727988 300.735077 
z
" clip-path="url(#pbaa28456c3)" style="fill: #06bcc1; opacity: 0.8"/>
   </g>
   <g id="patch_43">
    <path d="M 207.98104 307.506375 
L 210.583481 307.506375 
L 210.583481 288.344063 
L 207.98104 288.344063 
z
" clip-path="url(#pbaa28456c3)" style="fill: #06bcc1; opacity: 0.8"/>
   </g>
   <g id="patch_44">
    <path d="M 211.234091 307.506375 
L 213.836532 307.506375 
L 213.836532 285.902711 
L 211.234091 285.902711 
z
" clip-path="url(#pbaa28456c3)" style="fill: #06bcc1; opacity: 0.8"/>
   </g>
   <g id="patch_45">
    <path d="M 214.487143 307.506375 
L 217.089584 307.506375 
L 217.089584 256.307073 
L 214.487143 256.307073 
z
" clip-path="url(#pbaa28456c3)" style="fill: #06bcc1; opacity: 0.8"/>
   </g>
   <g id="patch_46">
    <path d="M 217.740194 307.506375 
L 220.342635 307.506375 
L 220.342635 255.201555 
L 217.740194 255.201555 
z
" clip-path="url(#pbaa28456c3)" style="fill: #06bcc1; opacity: 0.8"/>
   </g>
   <g id="patch_47">
    <path d="M 220.993246 307.506375 
L 223.595687 307.506375 
L 223.595687 194.052591 
L 220.993246 194.052591 
z
" clip-path="url(#pbaa28456c3)" style="fill: #06bcc1; opacity: 0.8"/>
   </g>
   <g id="patch_48">
    <path d="M 224.246297 307.506375 
L 226.848739 307.506375 
L 226.848739 209.48378 
L 224.246297 209.48378 
z
" clip-path="url(#pbaa28456c3)" style="fill: #06bcc1; opacity: 0.8"/>
   </g>
   <g id="patch_49">
    <path d="M 227.499349 307.506375 
L 230.10179 307.506375 
L 230.10179 114.248011 
L 227.499349 114.248011 
z
" clip-path="url(#pbaa28456c3)" style="fill: #06bcc1; opacity: 0.8"/>
   </g>
   <g id="patch_50">
    <path d="M 230.7524 307.506375 
L 233.354842 307.506375 
L 233.354842 151.881686 
L 230.7524 151.881686 
z
" clip-path="url(#pbaa28456c3)" style="fill: #06bcc1; opacity: 0.8"/>
   </g>
   <g id="patch_51">
    <path d="M 234.005452 307.506375 
L 236.607893 307.506375 
L 236.607893 55.033703 
L 234.005452 55.033703 
z
" clip-path="url(#pbaa28456c3)" style="fill: #06bcc1; opacity: 0.8"/>
   </g>
   <g id="patch_52">
    <path d="M 237.258504 307.506375 
L 239.860945 307.506375 
L 239.860945 124.911653 
L 237.258504 124.911653 
z
" clip-path="url(#pbaa28456c3)" style="fill: #06bcc1; opacity: 0.8"/>
   </g>
   <g id="patch_53">
    <path d="M 240.511555 307.506375 
L 243.113996 307.506375 
L 243.113996 129.725263 
L 240.511555 129.725263 
z
" clip-path="url(#pbaa28456c3)" style="fill: #06bcc1; opacity: 0.8"/>
   </g>
   <g id="patch_54">
    <path d="M 243.764607 307.506375 
L 246.367048 307.506375 
L 246.367048 54.066375 
L 243.764607 54.066375 
z
" clip-path="url(#pbaa28456c3)" style="fill: #06bcc1; opacity: 0.8"/>
   </g>
   <g id="patch_55">
    <path d="M 247.017658 307.506375 
L 249.6201 307.506375 
L 249.6201 157.04077 
L 247.017658 157.04077 
z
" clip-path="url(#pbaa28456c3)" style="fill: #06bcc1; opacity: 0.8"/>
   </g>
   <g id="patch_56">
    <path d="M 250.27071 307.506375 
L 252.873151 307.506375 
L 252.873151 115.65294 
L 250.27071 115.65294 
z
" clip-path="url(#pbaa28456c3)" style="fill: #06bcc1; opacity: 0.8"/>
   </g>
   <g id="patch_57">
    <path d="M 253.523761 307.506375 
L 256.126203 307.506375 
L 256.126203 203.54162 
L 253.523761 203.54162 
z
" clip-path="url(#pbaa28456c3)" style="fill: #06bcc1; opacity: 0.8"/>
   </g>
   <g id="patch_58">
    <path d="M 256.776813 307.506375 
L 259.379254 307.506375 
L 259.379254 193.384674 
L 256.776813 193.384674 
z
" clip-path="url(#pbaa28456c3)" style="fill: #06bcc1; opacity: 0.8"/>
   </g>
   <g id="patch_59">
    <path d="M 260.029865 307.506375 
L 262.632306 307.506375 
L 262.632306 256.698611 
L 260.029865 256.698611 
z
" clip-path="url(#pbaa28456c3)" style="fill: #06bcc1; opacity: 0.8"/>
   </g>
   <g id="patch_60">
    <path d="M 263.282916 307.506375 
L 265.885357 307.506375 
L 265.885357 256.399199 
L 263.282916 256.399199 
z
" clip-path="url(#pbaa28456c3)" style="fill: #06bcc1; opacity: 0.8"/>
   </g>
   <g id="patch_61">
    <path d="M 266.535968 307.506375 
L 269.138409 307.506375 
L 269.138409 287.514925 
L 266.535968 287.514925 
z
" clip-path="url(#pbaa28456c3)" style="fill: #06bcc1; opacity: 0.8"/>
   </g>
   <g id="patch_62">
    <path d="M 269.789019 307.506375 
L 272.39146 307.506375 
L 272.39146 288.067684 
L 269.789019 288.067684 
z
" clip-path="url(#pbaa28456c3)" style="fill: #06bcc1; opacity: 0.8"/>
   </g>
   <g id="patch_63">
    <path d="M 273.042071 307.506375 
L 275.644512 307.506375 
L 275.644512 300.942362 
L 273.042071 300.942362 
z
" clip-path="url(#pbaa28456c3)" style="fill: #06bcc1; opacity: 0.8"/>
   </g>
   <g id="patch_64">
    <path d="M 276.295122 307.506375 
L 278.897564 307.506375 
L 278.897564 303.17643 
L 276.295122 303.17643 
z
" clip-path="url(#pbaa28456c3)" style="fill: #06bcc1; opacity: 0.8"/>
   </g>
   <g id="patch_65">
    <path d="M 279.548174 307.506375 
L 282.150615 307.506375 
L 282.150615 304.903801 
L 279.548174 304.903801 
z
" clip-path="url(#pbaa28456c3)" style="fill: #06bcc1; opacity: 0.8"/>
   </g>
   <g id="patch_66">
    <path d="M 282.801225 307.506375 
L 285.403667 307.506375 
L 285.403667 306.677237 
L 282.801225 306.677237 
z
" clip-path="url(#pbaa28456c3)" style="fill: #06bcc1; opacity: 0.8"/>
   </g>
   <g id="patch_67">
    <path d="M 286.054277 307.506375 
L 288.656718 307.506375 
L 288.656718 306.792395 
L 286.054277 306.792395 
z
" clip-path="url(#pbaa28456c3)" style="fill: #06bcc1; opacity: 0.8"/>
   </g>
   <g id="patch_68">
    <path d="M 289.307329 307.506375 
L 291.90977 307.506375 
L 291.90977 307.206964 
L 289.307329 307.206964 
z
" clip-path="url(#pbaa28456c3)" style="fill: #06bcc1; opacity: 0.8"/>
   </g>
   <g id="patch_69">
    <path d="M 292.56038 307.506375 
L 295.162821 307.506375 
L 295.162821 307.391217 
L 292.56038 307.391217 
z
" clip-path="url(#pbaa28456c3)" style="fill: #06bcc1; opacity: 0.8"/>
   </g>
   <g id="patch_70">
    <path d="M 295.813432 307.506375 
L 298.415873 307.506375 
L 298.415873 307.506375 
L 295.813432 307.506375 
z
" clip-path="url(#pbaa28456c3)" style="fill: #06bcc1; opacity: 0.8"/>
   </g>
   <g id="patch_71">
    <path d="M 299.066483 307.506375 
L 301.668924 307.506375 
L 301.668924 307.506375 
L 299.066483 307.506375 
z
" clip-path="url(#pbaa28456c3)" style="fill: #06bcc1; opacity: 0.8"/>
   </g>
   <g id="patch_72">
    <path d="M 302.319535 307.506375 
L 304.921976 307.506375 
L 304.921976 307.506375 
L 302.319535 307.506375 
z
" clip-path="url(#pbaa28456c3)" style="fill: #06bcc1; opacity: 0.8"/>
   </g>
   <g id="patch_73">
    <path d="M 305.572586 307.506375 
L 308.175028 307.506375 
L 308.175028 307.506375 
L 305.572586 307.506375 
z
" clip-path="url(#pbaa28456c3)" style="fill: #06bcc1; opacity: 0.8"/>
   </g>
   <g id="patch_74">
    <path d="M 308.825638 307.506375 
L 311.428079 307.506375 
L 311.428079 307.506375 
L 308.825638 307.506375 
z
" clip-path="url(#pbaa28456c3)" style="fill: #06bcc1; opacity: 0.8"/>
   </g>
   <g id="patch_75">
    <path d="M 312.078689 307.506375 
L 314.681131 307.506375 
L 314.681131 307.506375 
L 312.078689 307.506375 
z
" clip-path="url(#pbaa28456c3)" style="fill: #06bcc1; opacity: 0.8"/>
   </g>
   <g id="patch_76">
    <path d="M 315.331741 307.506375 
L 317.934182 307.506375 
L 317.934182 307.506375 
L 315.331741 307.506375 
z
" clip-path="url(#pbaa28456c3)" style="fill: #06bcc1; opacity: 0.8"/>
   </g>
   <g id="patch_77">
    <path d="M 318.584793 307.506375 
L 321.187234 307.506375 
L 321.187234 307.506375 
L 318.584793 307.506375 
z
" clip-path="url(#pbaa28456c3)" style="fill: #06bcc1; opacity: 0.8"/>
   </g>
   <g id="patch_78">
    <path d="M 321.837844 307.506375 
L 324.440285 307.506375 
L 324.440285 307.506375 
L 321.837844 307.506375 
z
" clip-path="url(#pbaa28456c3)" style="fill: #06bcc1; opacity: 0.8"/>
   </g>
   <g id="patch_79">
    <path d="M 325.090896 307.506375 
L 327.693337 307.506375 
L 327.693337 307.506375 
L 325.090896 307.506375 
z
" clip-path="url(#pbaa28456c3)" style="fill: #06bcc1; opacity: 0.8"/>
   </g>
   <g id="patch_80">
    <path d="M 328.343947 307.506375 
L 330.946388 307.506375 
L 330.946388 307.506375 
L 328.343947 307.506375 
z
" clip-path="url(#pbaa28456c3)" style="fill: #06bcc1; opacity: 0.8"/>
   </g>
   <g id="patch_81">
    <path d="M 331.596999 307.506375 
L 334.19944 307.506375 
L 334.19944 307.506375 
L 331.596999 307.506375 
z
" clip-path="url(#pbaa28456c3)" style="fill: #06bcc1; opacity: 0.8"/>
   </g>
   <g id="patch_82">
    <path d="M 334.85005 307.506375 
L 337.452492 307.506375 
L 337.452492 307.506375 
L 334.85005 307.506375 
z
" clip-path="url(#pbaa28456c3)" style="fill: #06bcc1; opacity: 0.8"/>
   </g>
   <g id="patch_83">
    <path d="M 338.103102 307.506375 
L 340.705543 307.506375 
L 340.705543 307.506375 
L 338.103102 307.506375 
z
" clip-path="url(#pbaa28456c3)" style="fill: #06bcc1; opacity: 0.8"/>
   </g>
   <g id="patch_84">
    <path d="M 341.356153 307.506375 
L 343.958595 307.506375 
L 343.958595 307.506375 
L 341.356153 307.506375 
z
" clip-path="url(#pbaa28456c3)" style="fill: #06bcc1; opacity: 0.8"/>
   </g>
   <g id="patch_85">
    <path d="M 344.609205 307.506375 
L 347.211646 307.506375 
L 347.211646 307.506375 
L 344.609205 307.506375 
z
" clip-path="url(#pbaa28456c3)" style="fill: #06bcc1; opacity: 0.8"/>
   </g>
   <g id="patch_86">
    <path d="M 347.862257 307.506375 
L 350.464698 307.506375 
L 350.464698 307.506375 
L 347.862257 307.506375 
z
" clip-path="url(#pbaa28456c3)" style="fill: #06bcc1; opacity: 0.8"/>
   </g>
   <g id="patch_87">
    <path d="M 351.115308 307.506375 
L 353.717749 307.506375 
L 353.717749 307.506375 
L 351.115308 307.506375 
z
" clip-path="url(#pbaa28456c3)" style="fill: #06bcc1; opacity: 0.8"/>
   </g>
   <g id="patch_88">
    <path d="M 354.36836 307.506375 
L 356.970801 307.506375 
L 356.970801 307.506375 
L 354.36836 307.506375 
z
" clip-path="url(#pbaa28456c3)" style="fill: #06bcc1; opacity: 0.8"/>
   </g>
   <g id="patch_89">
    <path d="M 357.621411 307.506375 
L 360.223852 307.506375 
L 360.223852 307.506375 
L 357.621411 307.506375 
z
" clip-path="url(#pbaa28456c3)" style="fill: #06bcc1; opacity: 0.8"/>
   </g>
   <g id="patch_90">
    <path d="M 360.874463 307.506375 
L 363.476904 307.506375 
L 363.476904 307.506375 
L 360.874463 307.506375 
z
" clip-path="url(#pbaa28456c3)" style="fill: #06bcc1; opacity: 0.8"/>
   </g>
   <g id="patch_91">
    <path d="M 364.127514 307.506375 
L 366.729956 307.506375 
L 366.729956 307.506375 
L 364.127514 307.506375 
z
" clip-path="url(#pbaa28456c3)" style="fill: #06bcc1; opacity: 0.8"/>
   </g>
   <g id="patch_92">
    <path d="M 367.380566 307.506375 
L 369.983007 307.506375 
L 369.983007 307.506375 
L 367.380566 307.506375 
z
" clip-path="url(#pbaa28456c3)" style="fill: #06bcc1; opacity: 0.8"/>
   </g>
   <g id="patch_93">
    <path d="M 370.633617 307.506375 
L 373.236059 307.506375 
L 373.236059 307.506375 
L 370.633617 307.506375 
z
" clip-path="url(#pbaa28456c3)" style="fill: #06bcc1; opacity: 0.8"/>
   </g>
   <g id="patch_94">
    <path d="M 373.886669 307.506375 
L 376.48911 307.506375 
L 376.48911 307.506375 
L 373.886669 307.506375 
z
" clip-path="url(#pbaa28456c3)" style="fill: #06bcc1; opacity: 0.8"/>
   </g>
   <g id="patch_95">
    <path d="M 377.139721 307.506375 
L 379.742162 307.506375 
L 379.742162 307.506375 
L 377.139721 307.506375 
z
" clip-path="url(#pbaa28456c3)" style="fill: #06bcc1; opacity: 0.8"/>
   </g>
   <g id="patch_96">
    <path d="M 380.392772 307.506375 
L 382.995213 307.506375 
L 382.995213 307.506375 
L 380.392772 307.506375 
z
" clip-path="url(#pbaa28456c3)" style="fill: #06bcc1; opacity: 0.8"/>
   </g>
   <g id="patch_97">
    <path d="M 383.645824 307.506375 
L 386.248265 307.506375 
L 386.248265 307.506375 
L 383.645824 307.506375 
z
" clip-path="url(#pbaa28456c3)" style="fill: #06bcc1; opacity: 0.8"/>
   </g>
   <g id="patch_98">
    <path d="M 386.898875 307.506375 
L 389.501316 307.506375 
L 389.501316 307.506375 
L 386.898875 307.506375 
z
" clip-path="url(#pbaa28456c3)" style="fill: #06bcc1; opacity: 0.8"/>
   </g>
   <g id="patch_99">
    <path d="M 390.151927 307.506375 
L 392.754368 307.506375 
L 392.754368 307.506375 
L 390.151927 307.506375 
z
" clip-path="url(#pbaa28456c3)" style="fill: #06bcc1; opacity: 0.8"/>
   </g>
   <g id="patch_100">
    <path d="M 393.404978 307.506375 
L 396.00742 307.506375 
L 396.00742 307.506375 
L 393.404978 307.506375 
z
" clip-path="url(#pbaa28456c3)" style="fill: #06bcc1; opacity: 0.8"/>
   </g>
   <g id="patch_101">
    <path d="M 396.65803 307.506375 
L 399.260471 307.506375 
L 399.260471 307.506375 
L 396.65803 307.506375 
z
" clip-path="url(#pbaa28456c3)" style="fill: #06bcc1; opacity: 0.8"/>
   </g>
   <g id="patch_102">
    <path d="M 399.911081 307.506375 
L 402.513523 307.506375 
L 402.513523 307.506375 
L 399.911081 307.506375 
z
" clip-path="url(#pbaa28456c3)" style="fill: #06bcc1; opacity: 0.8"/>
   </g>
   <g id="matplotlib.axis_1">
    <g id="xtick_1">
     <g id="line2d_1">
      <defs>
       <path id="md306315237" d="M 0 0 
L 0 3.5 
" style="stroke: #000000; stroke-width: 0.8"/>
      </defs>
      <g>
       <use xlink:href="#md306315237" x="77.533672" y="307.506375" style="stroke: #000000; stroke-width: 0.8"/>
      </g>
     </g>
     <g id="text_1">
      <!-- 0.2 -->
      <g transform="translate(69.58211 322.104812) scale(0.1 -0.1)">
       <defs>
        <path id="DejaVuSans-30" d="M 2034 4250 
Q 1547 4250 1301 3770 
Q 1056 3291 1056 2328 
Q 1056 1369 1301 889 
Q 1547 409 2034 409 
Q 2525 409 2770 889 
Q 3016 1369 3016 2328 
Q 3016 3291 2770 3770 
Q 2525 4250 2034 4250 
z
M 2034 4750 
Q 2819 4750 3233 4129 
Q 3647 3509 3647 2328 
Q 3647 1150 3233 529 
Q 2819 -91 2034 -91 
Q 1250 -91 836 529 
Q 422 1150 422 2328 
Q 422 3509 836 4129 
Q 1250 4750 2034 4750 
z
" transform="scale(0.015625)"/>
        <path id="DejaVuSans-2e" d="M 684 794 
L 1344 794 
L 1344 0 
L 684 0 
L 684 794 
z
" transform="scale(0.015625)"/>
        <path id="DejaVuSans-32" d="M 1228 531 
L 3431 531 
L 3431 0 
L 469 0 
L 469 531 
Q 828 903 1448 1529 
Q 2069 2156 2228 2338 
Q 2531 2678 2651 2914 
Q 2772 3150 2772 3378 
Q 2772 3750 2511 3984 
Q 2250 4219 1831 4219 
Q 1534 4219 1204 4116 
Q 875 4013 500 3803 
L 500 4441 
Q 881 4594 1212 4672 
Q 1544 4750 1819 4750 
Q 2544 4750 2975 4387 
Q 3406 4025 3406 3419 
Q 3406 3131 3298 2873 
Q 3191 2616 2906 2266 
Q 2828 2175 2409 1742 
Q 1991 1309 1228 531 
z
" transform="scale(0.015625)"/>
       </defs>
       <use xlink:href="#DejaVuSans-30"/>
       <use xlink:href="#DejaVuSans-2e" x="63.623047"/>
       <use xlink:href="#DejaVuSans-32" x="95.410156"/>
      </g>
     </g>
    </g>
    <g id="xtick_2">
     <g id="line2d_2">
      <g>
       <use xlink:href="#md306315237" x="131.751198" y="307.506375" style="stroke: #000000; stroke-width: 0.8"/>
      </g>
     </g>
     <g id="text_2">
      <!-- 0.3 -->
      <g transform="translate(123.799636 322.104812) scale(0.1 -0.1)">
       <defs>
        <path id="DejaVuSans-33" d="M 2597 2516 
Q 3050 2419 3304 2112 
Q 3559 1806 3559 1356 
Q 3559 666 3084 287 
Q 2609 -91 1734 -91 
Q 1441 -91 1130 -33 
Q 819 25 488 141 
L 488 750 
Q 750 597 1062 519 
Q 1375 441 1716 441 
Q 2309 441 2620 675 
Q 2931 909 2931 1356 
Q 2931 1769 2642 2001 
Q 2353 2234 1838 2234 
L 1294 2234 
L 1294 2753 
L 1863 2753 
Q 2328 2753 2575 2939 
Q 2822 3125 2822 3475 
Q 2822 3834 2567 4026 
Q 2313 4219 1838 4219 
Q 1578 4219 1281 4162 
Q 984 4106 628 3988 
L 628 4550 
Q 988 4650 1302 4700 
Q 1616 4750 1894 4750 
Q 2613 4750 3031 4423 
Q 3450 4097 3450 3541 
Q 3450 3153 3228 2886 
Q 3006 2619 2597 2516 
z
" transform="scale(0.015625)"/>
       </defs>
       <use xlink:href="#DejaVuSans-30"/>
       <use xlink:href="#DejaVuSans-2e" x="63.623047"/>
       <use xlink:href="#DejaVuSans-33" x="95.410156"/>
      </g>
     </g>
    </g>
    <g id="xtick_3">
     <g id="line2d_3">
      <g>
       <use xlink:href="#md306315237" x="185.968724" y="307.506375" style="stroke: #000000; stroke-width: 0.8"/>
      </g>
     </g>
     <g id="text_3">
      <!-- 0.4 -->
      <g transform="translate(178.017162 322.104812) scale(0.1 -0.1)">
       <defs>
        <path id="DejaVuSans-34" d="M 2419 4116 
L 825 1625 
L 2419 1625 
L 2419 4116 
z
M 2253 4666 
L 3047 4666 
L 3047 1625 
L 3713 1625 
L 3713 1100 
L 3047 1100 
L 3047 0 
L 2419 0 
L 2419 1100 
L 313 1100 
L 313 1709 
L 2253 4666 
z
" transform="scale(0.015625)"/>
       </defs>
       <use xlink:href="#DejaVuSans-30"/>
       <use xlink:href="#DejaVuSans-2e" x="63.623047"/>
       <use xlink:href="#DejaVuSans-34" x="95.410156"/>
      </g>
     </g>
    </g>
    <g id="xtick_4">
     <g id="line2d_4">
      <g>
       <use xlink:href="#md306315237" x="240.18625" y="307.506375" style="stroke: #000000; stroke-width: 0.8"/>
      </g>
     </g>
     <g id="text_4">
      <!-- 0.5 -->
      <g transform="translate(232.234687 322.104812) scale(0.1 -0.1)">
       <defs>
        <path id="DejaVuSans-35" d="M 691 4666 
L 3169 4666 
L 3169 4134 
L 1269 4134 
L 1269 2991 
Q 1406 3038 1543 3061 
Q 1681 3084 1819 3084 
Q 2600 3084 3056 2656 
Q 3513 2228 3513 1497 
Q 3513 744 3044 326 
Q 2575 -91 1722 -91 
Q 1428 -91 1123 -41 
Q 819 9 494 109 
L 494 744 
Q 775 591 1075 516 
Q 1375 441 1709 441 
Q 2250 441 2565 725 
Q 2881 1009 2881 1497 
Q 2881 1984 2565 2268 
Q 2250 2553 1709 2553 
Q 1456 2553 1204 2497 
Q 953 2441 691 2322 
L 691 4666 
z
" transform="scale(0.015625)"/>
       </defs>
       <use xlink:href="#DejaVuSans-30"/>
       <use xlink:href="#DejaVuSans-2e" x="63.623047"/>
       <use xlink:href="#DejaVuSans-35" x="95.410156"/>
      </g>
     </g>
    </g>
    <g id="xtick_5">
     <g id="line2d_5">
      <g>
       <use xlink:href="#md306315237" x="294.403776" y="307.506375" style="stroke: #000000; stroke-width: 0.8"/>
      </g>
     </g>
     <g id="text_5">
      <!-- 0.6 -->
      <g transform="translate(286.452213 322.104812) scale(0.1 -0.1)">
       <defs>
        <path id="DejaVuSans-36" d="M 2113 2584 
Q 1688 2584 1439 2293 
Q 1191 2003 1191 1497 
Q 1191 994 1439 701 
Q 1688 409 2113 409 
Q 2538 409 2786 701 
Q 3034 994 3034 1497 
Q 3034 2003 2786 2293 
Q 2538 2584 2113 2584 
z
M 3366 4563 
L 3366 3988 
Q 3128 4100 2886 4159 
Q 2644 4219 2406 4219 
Q 1781 4219 1451 3797 
Q 1122 3375 1075 2522 
Q 1259 2794 1537 2939 
Q 1816 3084 2150 3084 
Q 2853 3084 3261 2657 
Q 3669 2231 3669 1497 
Q 3669 778 3244 343 
Q 2819 -91 2113 -91 
Q 1303 -91 875 529 
Q 447 1150 447 2328 
Q 447 3434 972 4092 
Q 1497 4750 2381 4750 
Q 2619 4750 2861 4703 
Q 3103 4656 3366 4563 
z
" transform="scale(0.015625)"/>
       </defs>
       <use xlink:href="#DejaVuSans-30"/>
       <use xlink:href="#DejaVuSans-2e" x="63.623047"/>
       <use xlink:href="#DejaVuSans-36" x="95.410156"/>
      </g>
     </g>
    </g>
    <g id="xtick_6">
     <g id="line2d_6">
      <g>
       <use xlink:href="#md306315237" x="348.621302" y="307.506375" style="stroke: #000000; stroke-width: 0.8"/>
      </g>
     </g>
     <g id="text_6">
      <!-- 0.7 -->
      <g transform="translate(340.669739 322.104812) scale(0.1 -0.1)">
       <defs>
        <path id="DejaVuSans-37" d="M 525 4666 
L 3525 4666 
L 3525 4397 
L 1831 0 
L 1172 0 
L 2766 4134 
L 525 4134 
L 525 4666 
z
" transform="scale(0.015625)"/>
       </defs>
       <use xlink:href="#DejaVuSans-30"/>
       <use xlink:href="#DejaVuSans-2e" x="63.623047"/>
       <use xlink:href="#DejaVuSans-37" x="95.410156"/>
      </g>
     </g>
    </g>
    <g id="xtick_7">
     <g id="line2d_7">
      <g>
       <use xlink:href="#md306315237" x="402.838828" y="307.506375" style="stroke: #000000; stroke-width: 0.8"/>
      </g>
     </g>
     <g id="text_7">
      <!-- 0.8 -->
      <g transform="translate(394.887265 322.104812) scale(0.1 -0.1)">
       <defs>
        <path id="DejaVuSans-38" d="M 2034 2216 
Q 1584 2216 1326 1975 
Q 1069 1734 1069 1313 
Q 1069 891 1326 650 
Q 1584 409 2034 409 
Q 2484 409 2743 651 
Q 3003 894 3003 1313 
Q 3003 1734 2745 1975 
Q 2488 2216 2034 2216 
z
M 1403 2484 
Q 997 2584 770 2862 
Q 544 3141 544 3541 
Q 544 4100 942 4425 
Q 1341 4750 2034 4750 
Q 2731 4750 3128 4425 
Q 3525 4100 3525 3541 
Q 3525 3141 3298 2862 
Q 3072 2584 2669 2484 
Q 3125 2378 3379 2068 
Q 3634 1759 3634 1313 
Q 3634 634 3220 271 
Q 2806 -91 2034 -91 
Q 1263 -91 848 271 
Q 434 634 434 1313 
Q 434 1759 690 2068 
Q 947 2378 1403 2484 
z
M 1172 3481 
Q 1172 3119 1398 2916 
Q 1625 2713 2034 2713 
Q 2441 2713 2670 2916 
Q 2900 3119 2900 3481 
Q 2900 3844 2670 4047 
Q 2441 4250 2034 4250 
Q 1625 4250 1398 4047 
Q 1172 3844 1172 3481 
z
" transform="scale(0.015625)"/>
       </defs>
       <use xlink:href="#DejaVuSans-30"/>
       <use xlink:href="#DejaVuSans-2e" x="63.623047"/>
       <use xlink:href="#DejaVuSans-38" x="95.410156"/>
      </g>
     </g>
    </g>
   </g>
   <g id="matplotlib.axis_2">
    <g id="ytick_1">
     <g id="line2d_8">
      <defs>
       <path id="m768cb0b74a" d="M 0 0 
L -3.5 0 
" style="stroke: #000000; stroke-width: 0.8"/>
      </defs>
      <g>
       <use xlink:href="#m768cb0b74a" x="61.62625" y="307.506375" style="stroke: #000000; stroke-width: 0.8"/>
      </g>
     </g>
     <g id="text_8">
      <!-- 0 -->
      <g transform="translate(48.26375 311.305594) scale(0.1 -0.1)">
       <use xlink:href="#DejaVuSans-30"/>
      </g>
     </g>
    </g>
    <g id="ytick_2">
     <g id="line2d_9">
      <g>
       <use xlink:href="#m768cb0b74a" x="61.62625" y="261.443125" style="stroke: #000000; stroke-width: 0.8"/>
      </g>
     </g>
     <g id="text_9">
      <!-- 2000 -->
      <g transform="translate(29.17625 265.242344) scale(0.1 -0.1)">
       <use xlink:href="#DejaVuSans-32"/>
       <use xlink:href="#DejaVuSans-30" x="63.623047"/>
       <use xlink:href="#DejaVuSans-30" x="127.246094"/>
       <use xlink:href="#DejaVuSans-30" x="190.869141"/>
      </g>
     </g>
    </g>
    <g id="ytick_3">
     <g id="line2d_10">
      <g>
       <use xlink:href="#m768cb0b74a" x="61.62625" y="215.379876" style="stroke: #000000; stroke-width: 0.8"/>
      </g>
     </g>
     <g id="text_10">
      <!-- 4000 -->
      <g transform="translate(29.17625 219.179094) scale(0.1 -0.1)">
       <use xlink:href="#DejaVuSans-34"/>
       <use xlink:href="#DejaVuSans-30" x="63.623047"/>
       <use xlink:href="#DejaVuSans-30" x="127.246094"/>
       <use xlink:href="#DejaVuSans-30" x="190.869141"/>
      </g>
     </g>
    </g>
    <g id="ytick_4">
     <g id="line2d_11">
      <g>
       <use xlink:href="#m768cb0b74a" x="61.62625" y="169.316626" style="stroke: #000000; stroke-width: 0.8"/>
      </g>
     </g>
     <g id="text_11">
      <!-- 6000 -->
      <g transform="translate(29.17625 173.115845) scale(0.1 -0.1)">
       <use xlink:href="#DejaVuSans-36"/>
       <use xlink:href="#DejaVuSans-30" x="63.623047"/>
       <use xlink:href="#DejaVuSans-30" x="127.246094"/>
       <use xlink:href="#DejaVuSans-30" x="190.869141"/>
      </g>
     </g>
    </g>
    <g id="ytick_5">
     <g id="line2d_12">
      <g>
       <use xlink:href="#m768cb0b74a" x="61.62625" y="123.253376" style="stroke: #000000; stroke-width: 0.8"/>
      </g>
     </g>
     <g id="text_12">
      <!-- 8000 -->
      <g transform="translate(29.17625 127.052595) scale(0.1 -0.1)">
       <use xlink:href="#DejaVuSans-38"/>
       <use xlink:href="#DejaVuSans-30" x="63.623047"/>
       <use xlink:href="#DejaVuSans-30" x="127.246094"/>
       <use xlink:href="#DejaVuSans-30" x="190.869141"/>
      </g>
     </g>
    </g>
    <g id="ytick_6">
     <g id="line2d_13">
      <g>
       <use xlink:href="#m768cb0b74a" x="61.62625" y="77.190126" style="stroke: #000000; stroke-width: 0.8"/>
      </g>
     </g>
     <g id="text_13">
      <!-- 10000 -->
      <g transform="translate(22.81375 80.989345) scale(0.1 -0.1)">
       <defs>
        <path id="DejaVuSans-31" d="M 794 531 
L 1825 531 
L 1825 4091 
L 703 3866 
L 703 4441 
L 1819 4666 
L 2450 4666 
L 2450 531 
L 3481 531 
L 3481 0 
L 794 0 
L 794 531 
z
" transform="scale(0.015625)"/>
       </defs>
       <use xlink:href="#DejaVuSans-31"/>
       <use xlink:href="#DejaVuSans-30" x="63.623047"/>
       <use xlink:href="#DejaVuSans-30" x="127.246094"/>
       <use xlink:href="#DejaVuSans-30" x="190.869141"/>
       <use xlink:href="#DejaVuSans-30" x="254.492188"/>
      </g>
     </g>
    </g>
    <g id="text_14">
     <!-- Frequency -->
     <g transform="translate(16.318125 205.446) rotate(-90) scale(0.12 -0.12)">
      <defs>
       <path id="DejaVuSans-46" d="M 628 4666 
L 3309 4666 
L 3309 4134 
L 1259 4134 
L 1259 2759 
L 3109 2759 
L 3109 2228 
L 1259 2228 
L 1259 0 
L 628 0 
L 628 4666 
z
" transform="scale(0.015625)"/>
       <path id="DejaVuSans-72" d="M 2631 2963 
Q 2534 3019 2420 3045 
Q 2306 3072 2169 3072 
Q 1681 3072 1420 2755 
Q 1159 2438 1159 1844 
L 1159 0 
L 581 0 
L 581 3500 
L 1159 3500 
L 1159 2956 
Q 1341 3275 1631 3429 
Q 1922 3584 2338 3584 
Q 2397 3584 2469 3576 
Q 2541 3569 2628 3553 
L 2631 2963 
z
" transform="scale(0.015625)"/>
       <path id="DejaVuSans-65" d="M 3597 1894 
L 3597 1613 
L 953 1613 
Q 991 1019 1311 708 
Q 1631 397 2203 397 
Q 2534 397 2845 478 
Q 3156 559 3463 722 
L 3463 178 
Q 3153 47 2828 -22 
Q 2503 -91 2169 -91 
Q 1331 -91 842 396 
Q 353 884 353 1716 
Q 353 2575 817 3079 
Q 1281 3584 2069 3584 
Q 2775 3584 3186 3129 
Q 3597 2675 3597 1894 
z
M 3022 2063 
Q 3016 2534 2758 2815 
Q 2500 3097 2075 3097 
Q 1594 3097 1305 2825 
Q 1016 2553 972 2059 
L 3022 2063 
z
" transform="scale(0.015625)"/>
       <path id="DejaVuSans-71" d="M 947 1747 
Q 947 1113 1208 752 
Q 1469 391 1925 391 
Q 2381 391 2643 752 
Q 2906 1113 2906 1747 
Q 2906 2381 2643 2742 
Q 2381 3103 1925 3103 
Q 1469 3103 1208 2742 
Q 947 2381 947 1747 
z
M 2906 525 
Q 2725 213 2448 61 
Q 2172 -91 1784 -91 
Q 1150 -91 751 415 
Q 353 922 353 1747 
Q 353 2572 751 3078 
Q 1150 3584 1784 3584 
Q 2172 3584 2448 3432 
Q 2725 3281 2906 2969 
L 2906 3500 
L 3481 3500 
L 3481 -1331 
L 2906 -1331 
L 2906 525 
z
" transform="scale(0.015625)"/>
       <path id="DejaVuSans-75" d="M 544 1381 
L 544 3500 
L 1119 3500 
L 1119 1403 
Q 1119 906 1312 657 
Q 1506 409 1894 409 
Q 2359 409 2629 706 
Q 2900 1003 2900 1516 
L 2900 3500 
L 3475 3500 
L 3475 0 
L 2900 0 
L 2900 538 
Q 2691 219 2414 64 
Q 2138 -91 1772 -91 
Q 1169 -91 856 284 
Q 544 659 544 1381 
z
M 1991 3584 
L 1991 3584 
z
" transform="scale(0.015625)"/>
       <path id="DejaVuSans-6e" d="M 3513 2113 
L 3513 0 
L 2938 0 
L 2938 2094 
Q 2938 2591 2744 2837 
Q 2550 3084 2163 3084 
Q 1697 3084 1428 2787 
Q 1159 2491 1159 1978 
L 1159 0 
L 581 0 
L 581 3500 
L 1159 3500 
L 1159 2956 
Q 1366 3272 1645 3428 
Q 1925 3584 2291 3584 
Q 2894 3584 3203 3211 
Q 3513 2838 3513 2113 
z
" transform="scale(0.015625)"/>
       <path id="DejaVuSans-63" d="M 3122 3366 
L 3122 2828 
Q 2878 2963 2633 3030 
Q 2388 3097 2138 3097 
Q 1578 3097 1268 2742 
Q 959 2388 959 1747 
Q 959 1106 1268 751 
Q 1578 397 2138 397 
Q 2388 397 2633 464 
Q 2878 531 3122 666 
L 3122 134 
Q 2881 22 2623 -34 
Q 2366 -91 2075 -91 
Q 1284 -91 818 406 
Q 353 903 353 1747 
Q 353 2603 823 3093 
Q 1294 3584 2113 3584 
Q 2378 3584 2631 3529 
Q 2884 3475 3122 3366 
z
" transform="scale(0.015625)"/>
       <path id="DejaVuSans-79" d="M 2059 -325 
Q 1816 -950 1584 -1140 
Q 1353 -1331 966 -1331 
L 506 -1331 
L 506 -850 
L 844 -850 
Q 1081 -850 1212 -737 
Q 1344 -625 1503 -206 
L 1606 56 
L 191 3500 
L 800 3500 
L 1894 763 
L 2988 3500 
L 3597 3500 
L 2059 -325 
z
" transform="scale(0.015625)"/>
      </defs>
      <use xlink:href="#DejaVuSans-46"/>
      <use xlink:href="#DejaVuSans-72" x="50.269531"/>
      <use xlink:href="#DejaVuSans-65" x="89.132812"/>
      <use xlink:href="#DejaVuSans-71" x="150.65625"/>
      <use xlink:href="#DejaVuSans-75" x="214.132812"/>
      <use xlink:href="#DejaVuSans-65" x="277.511719"/>
      <use xlink:href="#DejaVuSans-6e" x="339.035156"/>
      <use xlink:href="#DejaVuSans-63" x="402.414062"/>
      <use xlink:href="#DejaVuSans-79" x="457.394531"/>
     </g>
    </g>
   </g>
   <g id="line2d_14">
    <path d="M 124.160744 307.506375 
L 124.160744 41.394375 
" clip-path="url(#pbaa28456c3)" style="fill: none; stroke: #dc143c; stroke-width: 1.5; stroke-linecap: square"/>
   </g>
   <g id="line2d_15">
    <path d="M 356.211756 307.506375 
L 356.211756 41.394375 
" clip-path="url(#pbaa28456c3)" style="fill: none; stroke: #0000ff; stroke-width: 1.5; stroke-linecap: square"/>
   </g>
   <g id="patch_103">
    <path d="M 61.62625 307.506375 
L 61.62625 41.394375 
" style="fill: none; stroke: #000000; stroke-width: 0.8; stroke-linejoin: miter; stroke-linecap: square"/>
   </g>
   <g id="patch_104">
    <path d="M 418.74625 307.506375 
L 418.74625 41.394375 
" style="fill: none; stroke: #000000; stroke-width: 0.8; stroke-linejoin: miter; stroke-linecap: square"/>
   </g>
   <g id="patch_105">
    <path d="M 61.62625 307.506375 
L 418.74625 307.506375 
" style="fill: none; stroke: #000000; stroke-width: 0.8; stroke-linejoin: miter; stroke-linecap: square"/>
   </g>
   <g id="patch_106">
    <path d="M 61.62625 41.394375 
L 418.74625 41.394375 
" style="fill: none; stroke: #000000; stroke-width: 0.8; stroke-linejoin: miter; stroke-linecap: square"/>
   </g>
   <g id="text_15">
    <!-- Estimated P-Val: 0.00e+00 -->
    <g transform="translate(261.61345 350.084295) scale(0.11 -0.11)">
     <defs>
      <path id="DejaVuSans-45" d="M 628 4666 
L 3578 4666 
L 3578 4134 
L 1259 4134 
L 1259 2753 
L 3481 2753 
L 3481 2222 
L 1259 2222 
L 1259 531 
L 3634 531 
L 3634 0 
L 628 0 
L 628 4666 
z
" transform="scale(0.015625)"/>
      <path id="DejaVuSans-73" d="M 2834 3397 
L 2834 2853 
Q 2591 2978 2328 3040 
Q 2066 3103 1784 3103 
Q 1356 3103 1142 2972 
Q 928 2841 928 2578 
Q 928 2378 1081 2264 
Q 1234 2150 1697 2047 
L 1894 2003 
Q 2506 1872 2764 1633 
Q 3022 1394 3022 966 
Q 3022 478 2636 193 
Q 2250 -91 1575 -91 
Q 1294 -91 989 -36 
Q 684 19 347 128 
L 347 722 
Q 666 556 975 473 
Q 1284 391 1588 391 
Q 1994 391 2212 530 
Q 2431 669 2431 922 
Q 2431 1156 2273 1281 
Q 2116 1406 1581 1522 
L 1381 1569 
Q 847 1681 609 1914 
Q 372 2147 372 2553 
Q 372 3047 722 3315 
Q 1072 3584 1716 3584 
Q 2034 3584 2315 3537 
Q 2597 3491 2834 3397 
z
" transform="scale(0.015625)"/>
      <path id="DejaVuSans-74" d="M 1172 4494 
L 1172 3500 
L 2356 3500 
L 2356 3053 
L 1172 3053 
L 1172 1153 
Q 1172 725 1289 603 
Q 1406 481 1766 481 
L 2356 481 
L 2356 0 
L 1766 0 
Q 1100 0 847 248 
Q 594 497 594 1153 
L 594 3053 
L 172 3053 
L 172 3500 
L 594 3500 
L 594 4494 
L 1172 4494 
z
" transform="scale(0.015625)"/>
      <path id="DejaVuSans-69" d="M 603 3500 
L 1178 3500 
L 1178 0 
L 603 0 
L 603 3500 
z
M 603 4863 
L 1178 4863 
L 1178 4134 
L 603 4134 
L 603 4863 
z
" transform="scale(0.015625)"/>
      <path id="DejaVuSans-6d" d="M 3328 2828 
Q 3544 3216 3844 3400 
Q 4144 3584 4550 3584 
Q 5097 3584 5394 3201 
Q 5691 2819 5691 2113 
L 5691 0 
L 5113 0 
L 5113 2094 
Q 5113 2597 4934 2840 
Q 4756 3084 4391 3084 
Q 3944 3084 3684 2787 
Q 3425 2491 3425 1978 
L 3425 0 
L 2847 0 
L 2847 2094 
Q 2847 2600 2669 2842 
Q 2491 3084 2119 3084 
Q 1678 3084 1418 2786 
Q 1159 2488 1159 1978 
L 1159 0 
L 581 0 
L 581 3500 
L 1159 3500 
L 1159 2956 
Q 1356 3278 1631 3431 
Q 1906 3584 2284 3584 
Q 2666 3584 2933 3390 
Q 3200 3197 3328 2828 
z
" transform="scale(0.015625)"/>
      <path id="DejaVuSans-61" d="M 2194 1759 
Q 1497 1759 1228 1600 
Q 959 1441 959 1056 
Q 959 750 1161 570 
Q 1363 391 1709 391 
Q 2188 391 2477 730 
Q 2766 1069 2766 1631 
L 2766 1759 
L 2194 1759 
z
M 3341 1997 
L 3341 0 
L 2766 0 
L 2766 531 
Q 2569 213 2275 61 
Q 1981 -91 1556 -91 
Q 1019 -91 701 211 
Q 384 513 384 1019 
Q 384 1609 779 1909 
Q 1175 2209 1959 2209 
L 2766 2209 
L 2766 2266 
Q 2766 2663 2505 2880 
Q 2244 3097 1772 3097 
Q 1472 3097 1187 3025 
Q 903 2953 641 2809 
L 641 3341 
Q 956 3463 1253 3523 
Q 1550 3584 1831 3584 
Q 2591 3584 2966 3190 
Q 3341 2797 3341 1997 
z
" transform="scale(0.015625)"/>
      <path id="DejaVuSans-64" d="M 2906 2969 
L 2906 4863 
L 3481 4863 
L 3481 0 
L 2906 0 
L 2906 525 
Q 2725 213 2448 61 
Q 2172 -91 1784 -91 
Q 1150 -91 751 415 
Q 353 922 353 1747 
Q 353 2572 751 3078 
Q 1150 3584 1784 3584 
Q 2172 3584 2448 3432 
Q 2725 3281 2906 2969 
z
M 947 1747 
Q 947 1113 1208 752 
Q 1469 391 1925 391 
Q 2381 391 2643 752 
Q 2906 1113 2906 1747 
Q 2906 2381 2643 2742 
Q 2381 3103 1925 3103 
Q 1469 3103 1208 2742 
Q 947 2381 947 1747 
z
" transform="scale(0.015625)"/>
      <path id="DejaVuSans-20" transform="scale(0.015625)"/>
      <path id="DejaVuSans-50" d="M 1259 4147 
L 1259 2394 
L 2053 2394 
Q 2494 2394 2734 2622 
Q 2975 2850 2975 3272 
Q 2975 3691 2734 3919 
Q 2494 4147 2053 4147 
L 1259 4147 
z
M 628 4666 
L 2053 4666 
Q 2838 4666 3239 4311 
Q 3641 3956 3641 3272 
Q 3641 2581 3239 2228 
Q 2838 1875 2053 1875 
L 1259 1875 
L 1259 0 
L 628 0 
L 628 4666 
z
" transform="scale(0.015625)"/>
      <path id="DejaVuSans-2d" d="M 313 2009 
L 1997 2009 
L 1997 1497 
L 313 1497 
L 313 2009 
z
" transform="scale(0.015625)"/>
      <path id="DejaVuSans-56" d="M 1831 0 
L 50 4666 
L 709 4666 
L 2188 738 
L 3669 4666 
L 4325 4666 
L 2547 0 
L 1831 0 
z
" transform="scale(0.015625)"/>
      <path id="DejaVuSans-6c" d="M 603 4863 
L 1178 4863 
L 1178 0 
L 603 0 
L 603 4863 
z
" transform="scale(0.015625)"/>
      <path id="DejaVuSans-3a" d="M 750 794 
L 1409 794 
L 1409 0 
L 750 0 
L 750 794 
z
M 750 3309 
L 1409 3309 
L 1409 2516 
L 750 2516 
L 750 3309 
z
" transform="scale(0.015625)"/>
      <path id="DejaVuSans-2b" d="M 2944 4013 
L 2944 2272 
L 4684 2272 
L 4684 1741 
L 2944 1741 
L 2944 0 
L 2419 0 
L 2419 1741 
L 678 1741 
L 678 2272 
L 2419 2272 
L 2419 4013 
L 2944 4013 
z
" transform="scale(0.015625)"/>
     </defs>
     <use xlink:href="#DejaVuSans-45"/>
     <use xlink:href="#DejaVuSans-73" x="63.183594"/>
     <use xlink:href="#DejaVuSans-74" x="115.283203"/>
     <use xlink:href="#DejaVuSans-69" x="154.492188"/>
     <use xlink:href="#DejaVuSans-6d" x="182.275391"/>
     <use xlink:href="#DejaVuSans-61" x="279.6875"/>
     <use xlink:href="#DejaVuSans-74" x="340.966797"/>
     <use xlink:href="#DejaVuSans-65" x="380.175781"/>
     <use xlink:href="#DejaVuSans-64" x="441.699219"/>
     <use xlink:href="#DejaVuSans-20" x="505.175781"/>
     <use xlink:href="#DejaVuSans-50" x="536.962891"/>
     <use xlink:href="#DejaVuSans-2d" x="595.015625"/>
     <use xlink:href="#DejaVuSans-56" x="625.224609"/>
     <use xlink:href="#DejaVuSans-61" x="685.882812"/>
     <use xlink:href="#DejaVuSans-6c" x="747.162109"/>
     <use xlink:href="#DejaVuSans-3a" x="774.945312"/>
     <use xlink:href="#DejaVuSans-20" x="808.636719"/>
     <use xlink:href="#DejaVuSans-30" x="840.423828"/>
     <use xlink:href="#DejaVuSans-2e" x="904.046875"/>
     <use xlink:href="#DejaVuSans-30" x="935.833984"/>
     <use xlink:href="#DejaVuSans-30" x="999.457031"/>
     <use xlink:href="#DejaVuSans-65" x="1063.080078"/>
     <use xlink:href="#DejaVuSans-2b" x="1124.603516"/>
     <use xlink:href="#DejaVuSans-30" x="1208.392578"/>
     <use xlink:href="#DejaVuSans-30" x="1272.015625"/>
    </g>
   </g>
   <g id="text_16">
    <!-- Binomial P-Val: 2.31e-18 -->
    <g transform="translate(268.75585 363.389895) scale(0.11 -0.11)">
     <defs>
      <path id="DejaVuSans-42" d="M 1259 2228 
L 1259 519 
L 2272 519 
Q 2781 519 3026 730 
Q 3272 941 3272 1375 
Q 3272 1813 3026 2020 
Q 2781 2228 2272 2228 
L 1259 2228 
z
M 1259 4147 
L 1259 2741 
L 2194 2741 
Q 2656 2741 2882 2914 
Q 3109 3088 3109 3444 
Q 3109 3797 2882 3972 
Q 2656 4147 2194 4147 
L 1259 4147 
z
M 628 4666 
L 2241 4666 
Q 2963 4666 3353 4366 
Q 3744 4066 3744 3513 
Q 3744 3084 3544 2831 
Q 3344 2578 2956 2516 
Q 3422 2416 3680 2098 
Q 3938 1781 3938 1306 
Q 3938 681 3513 340 
Q 3088 0 2303 0 
L 628 0 
L 628 4666 
z
" transform="scale(0.015625)"/>
      <path id="DejaVuSans-6f" d="M 1959 3097 
Q 1497 3097 1228 2736 
Q 959 2375 959 1747 
Q 959 1119 1226 758 
Q 1494 397 1959 397 
Q 2419 397 2687 759 
Q 2956 1122 2956 1747 
Q 2956 2369 2687 2733 
Q 2419 3097 1959 3097 
z
M 1959 3584 
Q 2709 3584 3137 3096 
Q 3566 2609 3566 1747 
Q 3566 888 3137 398 
Q 2709 -91 1959 -91 
Q 1206 -91 779 398 
Q 353 888 353 1747 
Q 353 2609 779 3096 
Q 1206 3584 1959 3584 
z
" transform="scale(0.015625)"/>
     </defs>
     <use xlink:href="#DejaVuSans-42"/>
     <use xlink:href="#DejaVuSans-69" x="68.603516"/>
     <use xlink:href="#DejaVuSans-6e" x="96.386719"/>
     <use xlink:href="#DejaVuSans-6f" x="159.765625"/>
     <use xlink:href="#DejaVuSans-6d" x="220.947266"/>
     <use xlink:href="#DejaVuSans-69" x="318.359375"/>
     <use xlink:href="#DejaVuSans-61" x="346.142578"/>
     <use xlink:href="#DejaVuSans-6c" x="407.421875"/>
     <use xlink:href="#DejaVuSans-20" x="435.205078"/>
     <use xlink:href="#DejaVuSans-50" x="466.992188"/>
     <use xlink:href="#DejaVuSans-2d" x="525.044922"/>
     <use xlink:href="#DejaVuSans-56" x="555.253906"/>
     <use xlink:href="#DejaVuSans-61" x="615.912109"/>
     <use xlink:href="#DejaVuSans-6c" x="677.191406"/>
     <use xlink:href="#DejaVuSans-3a" x="704.974609"/>
     <use xlink:href="#DejaVuSans-20" x="738.666016"/>
     <use xlink:href="#DejaVuSans-32" x="770.453125"/>
     <use xlink:href="#DejaVuSans-2e" x="834.076172"/>
     <use xlink:href="#DejaVuSans-33" x="865.863281"/>
     <use xlink:href="#DejaVuSans-31" x="929.486328"/>
     <use xlink:href="#DejaVuSans-65" x="993.109375"/>
     <use xlink:href="#DejaVuSans-2d" x="1054.632812"/>
     <use xlink:href="#DejaVuSans-31" x="1090.716797"/>
     <use xlink:href="#DejaVuSans-38" x="1154.339844"/>
    </g>
   </g>
   <g id="text_17">
    <!-- Monte Carlo Simulation for Tickborne Ceftriaxone: -->
    <g transform="translate(27.044453 18.597656) scale(0.15 -0.15)">
     <defs>
      <path id="DejaVuSans-Bold-4d" d="M 588 4666 
L 2119 4666 
L 3181 2169 
L 4250 4666 
L 5778 4666 
L 5778 0 
L 4641 0 
L 4641 3413 
L 3566 897 
L 2803 897 
L 1728 3413 
L 1728 0 
L 588 0 
L 588 4666 
z
" transform="scale(0.015625)"/>
      <path id="DejaVuSans-Bold-6f" d="M 2203 2784 
Q 1831 2784 1636 2517 
Q 1441 2250 1441 1747 
Q 1441 1244 1636 976 
Q 1831 709 2203 709 
Q 2569 709 2762 976 
Q 2956 1244 2956 1747 
Q 2956 2250 2762 2517 
Q 2569 2784 2203 2784 
z
M 2203 3584 
Q 3106 3584 3614 3096 
Q 4122 2609 4122 1747 
Q 4122 884 3614 396 
Q 3106 -91 2203 -91 
Q 1297 -91 786 396 
Q 275 884 275 1747 
Q 275 2609 786 3096 
Q 1297 3584 2203 3584 
z
" transform="scale(0.015625)"/>
      <path id="DejaVuSans-Bold-6e" d="M 4056 2131 
L 4056 0 
L 2931 0 
L 2931 347 
L 2931 1631 
Q 2931 2084 2911 2256 
Q 2891 2428 2841 2509 
Q 2775 2619 2662 2680 
Q 2550 2741 2406 2741 
Q 2056 2741 1856 2470 
Q 1656 2200 1656 1722 
L 1656 0 
L 538 0 
L 538 3500 
L 1656 3500 
L 1656 2988 
Q 1909 3294 2193 3439 
Q 2478 3584 2822 3584 
Q 3428 3584 3742 3212 
Q 4056 2841 4056 2131 
z
" transform="scale(0.015625)"/>
      <path id="DejaVuSans-Bold-74" d="M 1759 4494 
L 1759 3500 
L 2913 3500 
L 2913 2700 
L 1759 2700 
L 1759 1216 
Q 1759 972 1856 886 
Q 1953 800 2241 800 
L 2816 800 
L 2816 0 
L 1856 0 
Q 1194 0 917 276 
Q 641 553 641 1216 
L 641 2700 
L 84 2700 
L 84 3500 
L 641 3500 
L 641 4494 
L 1759 4494 
z
" transform="scale(0.015625)"/>
      <path id="DejaVuSans-Bold-65" d="M 4031 1759 
L 4031 1441 
L 1416 1441 
Q 1456 1047 1700 850 
Q 1944 653 2381 653 
Q 2734 653 3104 758 
Q 3475 863 3866 1075 
L 3866 213 
Q 3469 63 3072 -14 
Q 2675 -91 2278 -91 
Q 1328 -91 801 392 
Q 275 875 275 1747 
Q 275 2603 792 3093 
Q 1309 3584 2216 3584 
Q 3041 3584 3536 3087 
Q 4031 2591 4031 1759 
z
M 2881 2131 
Q 2881 2450 2695 2645 
Q 2509 2841 2209 2841 
Q 1884 2841 1681 2658 
Q 1478 2475 1428 2131 
L 2881 2131 
z
" transform="scale(0.015625)"/>
      <path id="DejaVuSans-Bold-20" transform="scale(0.015625)"/>
      <path id="DejaVuSans-Bold-43" d="M 4288 256 
Q 3956 84 3597 -3 
Q 3238 -91 2847 -91 
Q 1681 -91 1000 561 
Q 319 1213 319 2328 
Q 319 3447 1000 4098 
Q 1681 4750 2847 4750 
Q 3238 4750 3597 4662 
Q 3956 4575 4288 4403 
L 4288 3438 
Q 3953 3666 3628 3772 
Q 3303 3878 2944 3878 
Q 2300 3878 1931 3465 
Q 1563 3053 1563 2328 
Q 1563 1606 1931 1193 
Q 2300 781 2944 781 
Q 3303 781 3628 887 
Q 3953 994 4288 1222 
L 4288 256 
z
" transform="scale(0.015625)"/>
      <path id="DejaVuSans-Bold-61" d="M 2106 1575 
Q 1756 1575 1579 1456 
Q 1403 1338 1403 1106 
Q 1403 894 1545 773 
Q 1688 653 1941 653 
Q 2256 653 2472 879 
Q 2688 1106 2688 1447 
L 2688 1575 
L 2106 1575 
z
M 3816 1997 
L 3816 0 
L 2688 0 
L 2688 519 
Q 2463 200 2181 54 
Q 1900 -91 1497 -91 
Q 953 -91 614 226 
Q 275 544 275 1050 
Q 275 1666 698 1953 
Q 1122 2241 2028 2241 
L 2688 2241 
L 2688 2328 
Q 2688 2594 2478 2717 
Q 2269 2841 1825 2841 
Q 1466 2841 1156 2769 
Q 847 2697 581 2553 
L 581 3406 
Q 941 3494 1303 3539 
Q 1666 3584 2028 3584 
Q 2975 3584 3395 3211 
Q 3816 2838 3816 1997 
z
" transform="scale(0.015625)"/>
      <path id="DejaVuSans-Bold-72" d="M 3138 2547 
Q 2991 2616 2845 2648 
Q 2700 2681 2553 2681 
Q 2122 2681 1889 2404 
Q 1656 2128 1656 1613 
L 1656 0 
L 538 0 
L 538 3500 
L 1656 3500 
L 1656 2925 
Q 1872 3269 2151 3426 
Q 2431 3584 2822 3584 
Q 2878 3584 2943 3579 
Q 3009 3575 3134 3559 
L 3138 2547 
z
" transform="scale(0.015625)"/>
      <path id="DejaVuSans-Bold-6c" d="M 538 4863 
L 1656 4863 
L 1656 0 
L 538 0 
L 538 4863 
z
" transform="scale(0.015625)"/>
      <path id="DejaVuSans-Bold-53" d="M 3834 4519 
L 3834 3531 
Q 3450 3703 3084 3790 
Q 2719 3878 2394 3878 
Q 1963 3878 1756 3759 
Q 1550 3641 1550 3391 
Q 1550 3203 1689 3098 
Q 1828 2994 2194 2919 
L 2706 2816 
Q 3484 2659 3812 2340 
Q 4141 2022 4141 1434 
Q 4141 663 3683 286 
Q 3225 -91 2284 -91 
Q 1841 -91 1394 -6 
Q 947 78 500 244 
L 500 1259 
Q 947 1022 1364 901 
Q 1781 781 2169 781 
Q 2563 781 2772 912 
Q 2981 1044 2981 1288 
Q 2981 1506 2839 1625 
Q 2697 1744 2272 1838 
L 1806 1941 
Q 1106 2091 782 2419 
Q 459 2747 459 3303 
Q 459 4000 909 4375 
Q 1359 4750 2203 4750 
Q 2588 4750 2994 4692 
Q 3400 4634 3834 4519 
z
" transform="scale(0.015625)"/>
      <path id="DejaVuSans-Bold-69" d="M 538 3500 
L 1656 3500 
L 1656 0 
L 538 0 
L 538 3500 
z
M 538 4863 
L 1656 4863 
L 1656 3950 
L 538 3950 
L 538 4863 
z
" transform="scale(0.015625)"/>
      <path id="DejaVuSans-Bold-6d" d="M 3781 2919 
Q 3994 3244 4286 3414 
Q 4578 3584 4928 3584 
Q 5531 3584 5847 3212 
Q 6163 2841 6163 2131 
L 6163 0 
L 5038 0 
L 5038 1825 
Q 5041 1866 5042 1909 
Q 5044 1953 5044 2034 
Q 5044 2406 4934 2573 
Q 4825 2741 4581 2741 
Q 4263 2741 4089 2478 
Q 3916 2216 3909 1719 
L 3909 0 
L 2784 0 
L 2784 1825 
Q 2784 2406 2684 2573 
Q 2584 2741 2328 2741 
Q 2006 2741 1831 2477 
Q 1656 2213 1656 1722 
L 1656 0 
L 531 0 
L 531 3500 
L 1656 3500 
L 1656 2988 
Q 1863 3284 2130 3434 
Q 2397 3584 2719 3584 
Q 3081 3584 3359 3409 
Q 3638 3234 3781 2919 
z
" transform="scale(0.015625)"/>
      <path id="DejaVuSans-Bold-75" d="M 500 1363 
L 500 3500 
L 1625 3500 
L 1625 3150 
Q 1625 2866 1622 2436 
Q 1619 2006 1619 1863 
Q 1619 1441 1641 1255 
Q 1663 1069 1716 984 
Q 1784 875 1895 815 
Q 2006 756 2150 756 
Q 2500 756 2700 1025 
Q 2900 1294 2900 1772 
L 2900 3500 
L 4019 3500 
L 4019 0 
L 2900 0 
L 2900 506 
Q 2647 200 2364 54 
Q 2081 -91 1741 -91 
Q 1134 -91 817 281 
Q 500 653 500 1363 
z
" transform="scale(0.015625)"/>
      <path id="DejaVuSans-Bold-66" d="M 2841 4863 
L 2841 4128 
L 2222 4128 
Q 1984 4128 1890 4042 
Q 1797 3956 1797 3744 
L 1797 3500 
L 2753 3500 
L 2753 2700 
L 1797 2700 
L 1797 0 
L 678 0 
L 678 2700 
L 122 2700 
L 122 3500 
L 678 3500 
L 678 3744 
Q 678 4316 997 4589 
Q 1316 4863 1984 4863 
L 2841 4863 
z
" transform="scale(0.015625)"/>
      <path id="DejaVuSans-Bold-54" d="M 31 4666 
L 4331 4666 
L 4331 3756 
L 2784 3756 
L 2784 0 
L 1581 0 
L 1581 3756 
L 31 3756 
L 31 4666 
z
" transform="scale(0.015625)"/>
      <path id="DejaVuSans-Bold-63" d="M 3366 3391 
L 3366 2478 
Q 3138 2634 2908 2709 
Q 2678 2784 2431 2784 
Q 1963 2784 1702 2511 
Q 1441 2238 1441 1747 
Q 1441 1256 1702 982 
Q 1963 709 2431 709 
Q 2694 709 2930 787 
Q 3166 866 3366 1019 
L 3366 103 
Q 3103 6 2833 -42 
Q 2563 -91 2291 -91 
Q 1344 -91 809 395 
Q 275 881 275 1747 
Q 275 2613 809 3098 
Q 1344 3584 2291 3584 
Q 2566 3584 2833 3536 
Q 3100 3488 3366 3391 
z
" transform="scale(0.015625)"/>
      <path id="DejaVuSans-Bold-6b" d="M 538 4863 
L 1656 4863 
L 1656 2216 
L 2944 3500 
L 4244 3500 
L 2534 1894 
L 4378 0 
L 3022 0 
L 1656 1459 
L 1656 0 
L 538 0 
L 538 4863 
z
" transform="scale(0.015625)"/>
      <path id="DejaVuSans-Bold-62" d="M 2400 722 
Q 2759 722 2948 984 
Q 3138 1247 3138 1747 
Q 3138 2247 2948 2509 
Q 2759 2772 2400 2772 
Q 2041 2772 1848 2508 
Q 1656 2244 1656 1747 
Q 1656 1250 1848 986 
Q 2041 722 2400 722 
z
M 1656 2988 
Q 1888 3294 2169 3439 
Q 2450 3584 2816 3584 
Q 3463 3584 3878 3070 
Q 4294 2556 4294 1747 
Q 4294 938 3878 423 
Q 3463 -91 2816 -91 
Q 2450 -91 2169 54 
Q 1888 200 1656 506 
L 1656 0 
L 538 0 
L 538 4863 
L 1656 4863 
L 1656 2988 
z
" transform="scale(0.015625)"/>
      <path id="DejaVuSans-Bold-78" d="M 1422 1791 
L 159 3500 
L 1344 3500 
L 2059 2463 
L 2784 3500 
L 3969 3500 
L 2706 1797 
L 4031 0 
L 2847 0 
L 2059 1106 
L 1281 0 
L 97 0 
L 1422 1791 
z
" transform="scale(0.015625)"/>
      <path id="DejaVuSans-Bold-3a" d="M 716 3500 
L 1844 3500 
L 1844 2291 
L 716 2291 
L 716 3500 
z
M 716 1209 
L 1844 1209 
L 1844 0 
L 716 0 
L 716 1209 
z
" transform="scale(0.015625)"/>
     </defs>
     <use xlink:href="#DejaVuSans-Bold-4d"/>
     <use xlink:href="#DejaVuSans-Bold-6f" x="99.511719"/>
     <use xlink:href="#DejaVuSans-Bold-6e" x="168.212891"/>
     <use xlink:href="#DejaVuSans-Bold-74" x="239.404297"/>
     <use xlink:href="#DejaVuSans-Bold-65" x="287.207031"/>
     <use xlink:href="#DejaVuSans-Bold-20" x="355.029297"/>
     <use xlink:href="#DejaVuSans-Bold-43" x="389.84375"/>
     <use xlink:href="#DejaVuSans-Bold-61" x="463.232422"/>
     <use xlink:href="#DejaVuSans-Bold-72" x="530.712891"/>
     <use xlink:href="#DejaVuSans-Bold-6c" x="580.029297"/>
     <use xlink:href="#DejaVuSans-Bold-6f" x="614.306641"/>
     <use xlink:href="#DejaVuSans-Bold-20" x="683.007812"/>
     <use xlink:href="#DejaVuSans-Bold-53" x="717.822266"/>
     <use xlink:href="#DejaVuSans-Bold-69" x="789.84375"/>
     <use xlink:href="#DejaVuSans-Bold-6d" x="824.121094"/>
     <use xlink:href="#DejaVuSans-Bold-75" x="928.320312"/>
     <use xlink:href="#DejaVuSans-Bold-6c" x="999.511719"/>
     <use xlink:href="#DejaVuSans-Bold-61" x="1033.789062"/>
     <use xlink:href="#DejaVuSans-Bold-74" x="1101.269531"/>
     <use xlink:href="#DejaVuSans-Bold-69" x="1149.072266"/>
     <use xlink:href="#DejaVuSans-Bold-6f" x="1183.349609"/>
     <use xlink:href="#DejaVuSans-Bold-6e" x="1252.050781"/>
     <use xlink:href="#DejaVuSans-Bold-20" x="1323.242188"/>
     <use xlink:href="#DejaVuSans-Bold-66" x="1358.056641"/>
     <use xlink:href="#DejaVuSans-Bold-6f" x="1401.5625"/>
     <use xlink:href="#DejaVuSans-Bold-72" x="1470.263672"/>
     <use xlink:href="#DejaVuSans-Bold-20" x="1519.580078"/>
     <use xlink:href="#DejaVuSans-Bold-54" x="1554.394531"/>
     <use xlink:href="#DejaVuSans-Bold-69" x="1622.607422"/>
     <use xlink:href="#DejaVuSans-Bold-63" x="1656.884766"/>
     <use xlink:href="#DejaVuSans-Bold-6b" x="1716.162109"/>
     <use xlink:href="#DejaVuSans-Bold-62" x="1782.666016"/>
     <use xlink:href="#DejaVuSans-Bold-6f" x="1854.248047"/>
     <use xlink:href="#DejaVuSans-Bold-72" x="1922.949219"/>
     <use xlink:href="#DejaVuSans-Bold-6e" x="1972.265625"/>
     <use xlink:href="#DejaVuSans-Bold-65" x="2043.457031"/>
     <use xlink:href="#DejaVuSans-Bold-20" x="2111.279297"/>
     <use xlink:href="#DejaVuSans-Bold-43" x="2146.09375"/>
     <use xlink:href="#DejaVuSans-Bold-65" x="2219.482422"/>
     <use xlink:href="#DejaVuSans-Bold-66" x="2287.304688"/>
     <use xlink:href="#DejaVuSans-Bold-74" x="2330.810547"/>
     <use xlink:href="#DejaVuSans-Bold-72" x="2378.613281"/>
     <use xlink:href="#DejaVuSans-Bold-69" x="2427.929688"/>
     <use xlink:href="#DejaVuSans-Bold-61" x="2462.207031"/>
     <use xlink:href="#DejaVuSans-Bold-78" x="2529.6875"/>
     <use xlink:href="#DejaVuSans-Bold-6f" x="2594.189453"/>
     <use xlink:href="#DejaVuSans-Bold-6e" x="2662.890625"/>
     <use xlink:href="#DejaVuSans-Bold-65" x="2734.082031"/>
     <use xlink:href="#DejaVuSans-Bold-3a" x="2801.904297"/>
    </g>
    <!-- Significantly Different from Random -->
    <g transform="translate(86.818281 35.394375) scale(0.15 -0.15)">
     <defs>
      <path id="DejaVuSans-Bold-67" d="M 2919 594 
Q 2688 288 2409 144 
Q 2131 0 1766 0 
Q 1125 0 706 504 
Q 288 1009 288 1791 
Q 288 2575 706 3076 
Q 1125 3578 1766 3578 
Q 2131 3578 2409 3434 
Q 2688 3291 2919 2981 
L 2919 3500 
L 4044 3500 
L 4044 353 
Q 4044 -491 3511 -936 
Q 2978 -1381 1966 -1381 
Q 1638 -1381 1331 -1331 
Q 1025 -1281 716 -1178 
L 716 -306 
Q 1009 -475 1290 -558 
Q 1572 -641 1856 -641 
Q 2406 -641 2662 -400 
Q 2919 -159 2919 353 
L 2919 594 
z
M 2181 2772 
Q 1834 2772 1640 2515 
Q 1447 2259 1447 1791 
Q 1447 1309 1634 1061 
Q 1822 813 2181 813 
Q 2531 813 2725 1069 
Q 2919 1325 2919 1791 
Q 2919 2259 2725 2515 
Q 2531 2772 2181 2772 
z
" transform="scale(0.015625)"/>
      <path id="DejaVuSans-Bold-79" d="M 78 3500 
L 1197 3500 
L 2138 1125 
L 2938 3500 
L 4056 3500 
L 2584 -331 
Q 2363 -916 2067 -1148 
Q 1772 -1381 1288 -1381 
L 641 -1381 
L 641 -647 
L 991 -647 
Q 1275 -647 1404 -556 
Q 1534 -466 1606 -231 
L 1638 -134 
L 78 3500 
z
" transform="scale(0.015625)"/>
      <path id="DejaVuSans-Bold-44" d="M 1791 3756 
L 1791 909 
L 2222 909 
Q 2959 909 3348 1275 
Q 3738 1641 3738 2338 
Q 3738 3031 3350 3393 
Q 2963 3756 2222 3756 
L 1791 3756 
z
M 588 4666 
L 1856 4666 
Q 2919 4666 3439 4514 
Q 3959 4363 4331 4000 
Q 4659 3684 4818 3271 
Q 4978 2859 4978 2338 
Q 4978 1809 4818 1395 
Q 4659 981 4331 666 
Q 3956 303 3431 151 
Q 2906 0 1856 0 
L 588 0 
L 588 4666 
z
" transform="scale(0.015625)"/>
      <path id="DejaVuSans-Bold-52" d="M 2297 2597 
Q 2675 2597 2839 2737 
Q 3003 2878 3003 3200 
Q 3003 3519 2839 3656 
Q 2675 3794 2297 3794 
L 1791 3794 
L 1791 2597 
L 2297 2597 
z
M 1791 1766 
L 1791 0 
L 588 0 
L 588 4666 
L 2425 4666 
Q 3347 4666 3776 4356 
Q 4206 4047 4206 3378 
Q 4206 2916 3982 2619 
Q 3759 2322 3309 2181 
Q 3556 2125 3751 1926 
Q 3947 1728 4147 1325 
L 4800 0 
L 3519 0 
L 2950 1159 
Q 2778 1509 2601 1637 
Q 2425 1766 2131 1766 
L 1791 1766 
z
" transform="scale(0.015625)"/>
      <path id="DejaVuSans-Bold-64" d="M 2919 2988 
L 2919 4863 
L 4044 4863 
L 4044 0 
L 2919 0 
L 2919 506 
Q 2688 197 2409 53 
Q 2131 -91 1766 -91 
Q 1119 -91 703 423 
Q 288 938 288 1747 
Q 288 2556 703 3070 
Q 1119 3584 1766 3584 
Q 2128 3584 2408 3439 
Q 2688 3294 2919 2988 
z
M 2181 722 
Q 2541 722 2730 984 
Q 2919 1247 2919 1747 
Q 2919 2247 2730 2509 
Q 2541 2772 2181 2772 
Q 1825 2772 1636 2509 
Q 1447 2247 1447 1747 
Q 1447 1247 1636 984 
Q 1825 722 2181 722 
z
" transform="scale(0.015625)"/>
     </defs>
     <use xlink:href="#DejaVuSans-Bold-53"/>
     <use xlink:href="#DejaVuSans-Bold-69" x="72.021484"/>
     <use xlink:href="#DejaVuSans-Bold-67" x="106.298828"/>
     <use xlink:href="#DejaVuSans-Bold-6e" x="177.880859"/>
     <use xlink:href="#DejaVuSans-Bold-69" x="249.072266"/>
     <use xlink:href="#DejaVuSans-Bold-66" x="283.349609"/>
     <use xlink:href="#DejaVuSans-Bold-69" x="326.855469"/>
     <use xlink:href="#DejaVuSans-Bold-63" x="361.132812"/>
     <use xlink:href="#DejaVuSans-Bold-61" x="420.410156"/>
     <use xlink:href="#DejaVuSans-Bold-6e" x="487.890625"/>
     <use xlink:href="#DejaVuSans-Bold-74" x="559.082031"/>
     <use xlink:href="#DejaVuSans-Bold-6c" x="606.884766"/>
     <use xlink:href="#DejaVuSans-Bold-79" x="641.162109"/>
     <use xlink:href="#DejaVuSans-Bold-20" x="706.347656"/>
     <use xlink:href="#DejaVuSans-Bold-44" x="741.162109"/>
     <use xlink:href="#DejaVuSans-Bold-69" x="824.169922"/>
     <use xlink:href="#DejaVuSans-Bold-66" x="858.447266"/>
     <use xlink:href="#DejaVuSans-Bold-66" x="901.953125"/>
     <use xlink:href="#DejaVuSans-Bold-65" x="945.458984"/>
     <use xlink:href="#DejaVuSans-Bold-72" x="1013.28125"/>
     <use xlink:href="#DejaVuSans-Bold-65" x="1062.597656"/>
     <use xlink:href="#DejaVuSans-Bold-6e" x="1130.419922"/>
     <use xlink:href="#DejaVuSans-Bold-74" x="1201.611328"/>
     <use xlink:href="#DejaVuSans-Bold-20" x="1249.414062"/>
     <use xlink:href="#DejaVuSans-Bold-66" x="1284.228516"/>
     <use xlink:href="#DejaVuSans-Bold-72" x="1327.734375"/>
     <use xlink:href="#DejaVuSans-Bold-6f" x="1377.050781"/>
     <use xlink:href="#DejaVuSans-Bold-6d" x="1445.751953"/>
     <use xlink:href="#DejaVuSans-Bold-20" x="1549.951172"/>
     <use xlink:href="#DejaVuSans-Bold-52" x="1584.765625"/>
     <use xlink:href="#DejaVuSans-Bold-61" x="1661.767578"/>
     <use xlink:href="#DejaVuSans-Bold-6e" x="1729.248047"/>
     <use xlink:href="#DejaVuSans-Bold-64" x="1800.439453"/>
     <use xlink:href="#DejaVuSans-Bold-6f" x="1872.021484"/>
     <use xlink:href="#DejaVuSans-Bold-6d" x="1940.722656"/>
    </g>
   </g>
   <g id="legend_1">
    <g id="patch_107">
     <path d="M 62.695312 369.034375 
L 239.117188 369.034375 
Q 241.117188 369.034375 241.117188 367.034375 
L 241.117188 338.678125 
Q 241.117188 336.678125 239.117188 336.678125 
L 62.695312 336.678125 
Q 60.695312 336.678125 60.695312 338.678125 
L 60.695312 367.034375 
Q 60.695312 369.034375 62.695312 369.034375 
z
" style="fill: #ffffff; opacity: 0.8; stroke: #cccccc; stroke-linejoin: miter"/>
    </g>
    <g id="line2d_16">
     <path d="M 64.695312 344.776562 
L 74.695312 344.776562 
L 84.695312 344.776562 
" style="fill: none; stroke: #dc143c; stroke-width: 1.5; stroke-linecap: square"/>
    </g>
    <g id="text_18">
     <!-- Left Actual Proportion: 0.29 -->
     <g transform="translate(92.695312 348.276562) scale(0.1 -0.1)">
      <defs>
       <path id="DejaVuSans-4c" d="M 628 4666 
L 1259 4666 
L 1259 531 
L 3531 531 
L 3531 0 
L 628 0 
L 628 4666 
z
" transform="scale(0.015625)"/>
       <path id="DejaVuSans-66" d="M 2375 4863 
L 2375 4384 
L 1825 4384 
Q 1516 4384 1395 4259 
Q 1275 4134 1275 3809 
L 1275 3500 
L 2222 3500 
L 2222 3053 
L 1275 3053 
L 1275 0 
L 697 0 
L 697 3053 
L 147 3053 
L 147 3500 
L 697 3500 
L 697 3744 
Q 697 4328 969 4595 
Q 1241 4863 1831 4863 
L 2375 4863 
z
" transform="scale(0.015625)"/>
       <path id="DejaVuSans-41" d="M 2188 4044 
L 1331 1722 
L 3047 1722 
L 2188 4044 
z
M 1831 4666 
L 2547 4666 
L 4325 0 
L 3669 0 
L 3244 1197 
L 1141 1197 
L 716 0 
L 50 0 
L 1831 4666 
z
" transform="scale(0.015625)"/>
       <path id="DejaVuSans-70" d="M 1159 525 
L 1159 -1331 
L 581 -1331 
L 581 3500 
L 1159 3500 
L 1159 2969 
Q 1341 3281 1617 3432 
Q 1894 3584 2278 3584 
Q 2916 3584 3314 3078 
Q 3713 2572 3713 1747 
Q 3713 922 3314 415 
Q 2916 -91 2278 -91 
Q 1894 -91 1617 61 
Q 1341 213 1159 525 
z
M 3116 1747 
Q 3116 2381 2855 2742 
Q 2594 3103 2138 3103 
Q 1681 3103 1420 2742 
Q 1159 2381 1159 1747 
Q 1159 1113 1420 752 
Q 1681 391 2138 391 
Q 2594 391 2855 752 
Q 3116 1113 3116 1747 
z
" transform="scale(0.015625)"/>
       <path id="DejaVuSans-39" d="M 703 97 
L 703 672 
Q 941 559 1184 500 
Q 1428 441 1663 441 
Q 2288 441 2617 861 
Q 2947 1281 2994 2138 
Q 2813 1869 2534 1725 
Q 2256 1581 1919 1581 
Q 1219 1581 811 2004 
Q 403 2428 403 3163 
Q 403 3881 828 4315 
Q 1253 4750 1959 4750 
Q 2769 4750 3195 4129 
Q 3622 3509 3622 2328 
Q 3622 1225 3098 567 
Q 2575 -91 1691 -91 
Q 1453 -91 1209 -44 
Q 966 3 703 97 
z
M 1959 2075 
Q 2384 2075 2632 2365 
Q 2881 2656 2881 3163 
Q 2881 3666 2632 3958 
Q 2384 4250 1959 4250 
Q 1534 4250 1286 3958 
Q 1038 3666 1038 3163 
Q 1038 2656 1286 2365 
Q 1534 2075 1959 2075 
z
" transform="scale(0.015625)"/>
      </defs>
      <use xlink:href="#DejaVuSans-4c"/>
      <use xlink:href="#DejaVuSans-65" x="53.962891"/>
      <use xlink:href="#DejaVuSans-66" x="115.486328"/>
      <use xlink:href="#DejaVuSans-74" x="148.941406"/>
      <use xlink:href="#DejaVuSans-20" x="188.150391"/>
      <use xlink:href="#DejaVuSans-41" x="219.9375"/>
      <use xlink:href="#DejaVuSans-63" x="286.595703"/>
      <use xlink:href="#DejaVuSans-74" x="341.576172"/>
      <use xlink:href="#DejaVuSans-75" x="380.785156"/>
      <use xlink:href="#DejaVuSans-61" x="444.164062"/>
      <use xlink:href="#DejaVuSans-6c" x="505.443359"/>
      <use xlink:href="#DejaVuSans-20" x="533.226562"/>
      <use xlink:href="#DejaVuSans-50" x="565.013672"/>
      <use xlink:href="#DejaVuSans-72" x="623.566406"/>
      <use xlink:href="#DejaVuSans-6f" x="662.429688"/>
      <use xlink:href="#DejaVuSans-70" x="723.611328"/>
      <use xlink:href="#DejaVuSans-6f" x="787.087891"/>
      <use xlink:href="#DejaVuSans-72" x="848.269531"/>
      <use xlink:href="#DejaVuSans-74" x="889.382812"/>
      <use xlink:href="#DejaVuSans-69" x="928.591797"/>
      <use xlink:href="#DejaVuSans-6f" x="956.375"/>
      <use xlink:href="#DejaVuSans-6e" x="1017.556641"/>
      <use xlink:href="#DejaVuSans-3a" x="1080.935547"/>
      <use xlink:href="#DejaVuSans-20" x="1114.626953"/>
      <use xlink:href="#DejaVuSans-30" x="1146.414062"/>
      <use xlink:href="#DejaVuSans-2e" x="1210.037109"/>
      <use xlink:href="#DejaVuSans-32" x="1241.824219"/>
      <use xlink:href="#DejaVuSans-39" x="1305.447266"/>
     </g>
    </g>
    <g id="line2d_17">
     <path d="M 64.695312 359.454687 
L 74.695312 359.454687 
L 84.695312 359.454687 
" style="fill: none; stroke: #0000ff; stroke-width: 1.5; stroke-linecap: square"/>
    </g>
    <g id="text_19">
     <!-- Right Actual Proportion: 0.71 -->
     <g transform="translate(92.695312 362.954687) scale(0.1 -0.1)">
      <defs>
       <path id="DejaVuSans-52" d="M 2841 2188 
Q 3044 2119 3236 1894 
Q 3428 1669 3622 1275 
L 4263 0 
L 3584 0 
L 2988 1197 
Q 2756 1666 2539 1819 
Q 2322 1972 1947 1972 
L 1259 1972 
L 1259 0 
L 628 0 
L 628 4666 
L 2053 4666 
Q 2853 4666 3247 4331 
Q 3641 3997 3641 3322 
Q 3641 2881 3436 2590 
Q 3231 2300 2841 2188 
z
M 1259 4147 
L 1259 2491 
L 2053 2491 
Q 2509 2491 2742 2702 
Q 2975 2913 2975 3322 
Q 2975 3731 2742 3939 
Q 2509 4147 2053 4147 
L 1259 4147 
z
" transform="scale(0.015625)"/>
       <path id="DejaVuSans-67" d="M 2906 1791 
Q 2906 2416 2648 2759 
Q 2391 3103 1925 3103 
Q 1463 3103 1205 2759 
Q 947 2416 947 1791 
Q 947 1169 1205 825 
Q 1463 481 1925 481 
Q 2391 481 2648 825 
Q 2906 1169 2906 1791 
z
M 3481 434 
Q 3481 -459 3084 -895 
Q 2688 -1331 1869 -1331 
Q 1566 -1331 1297 -1286 
Q 1028 -1241 775 -1147 
L 775 -588 
Q 1028 -725 1275 -790 
Q 1522 -856 1778 -856 
Q 2344 -856 2625 -561 
Q 2906 -266 2906 331 
L 2906 616 
Q 2728 306 2450 153 
Q 2172 0 1784 0 
Q 1141 0 747 490 
Q 353 981 353 1791 
Q 353 2603 747 3093 
Q 1141 3584 1784 3584 
Q 2172 3584 2450 3431 
Q 2728 3278 2906 2969 
L 2906 3500 
L 3481 3500 
L 3481 434 
z
" transform="scale(0.015625)"/>
       <path id="DejaVuSans-68" d="M 3513 2113 
L 3513 0 
L 2938 0 
L 2938 2094 
Q 2938 2591 2744 2837 
Q 2550 3084 2163 3084 
Q 1697 3084 1428 2787 
Q 1159 2491 1159 1978 
L 1159 0 
L 581 0 
L 581 4863 
L 1159 4863 
L 1159 2956 
Q 1366 3272 1645 3428 
Q 1925 3584 2291 3584 
Q 2894 3584 3203 3211 
Q 3513 2838 3513 2113 
z
" transform="scale(0.015625)"/>
      </defs>
      <use xlink:href="#DejaVuSans-52"/>
      <use xlink:href="#DejaVuSans-69" x="69.482422"/>
      <use xlink:href="#DejaVuSans-67" x="97.265625"/>
      <use xlink:href="#DejaVuSans-68" x="160.742188"/>
      <use xlink:href="#DejaVuSans-74" x="224.121094"/>
      <use xlink:href="#DejaVuSans-20" x="263.330078"/>
      <use xlink:href="#DejaVuSans-41" x="295.117188"/>
      <use xlink:href="#DejaVuSans-63" x="361.775391"/>
      <use xlink:href="#DejaVuSans-74" x="416.755859"/>
      <use xlink:href="#DejaVuSans-75" x="455.964844"/>
      <use xlink:href="#DejaVuSans-61" x="519.34375"/>
      <use xlink:href="#DejaVuSans-6c" x="580.623047"/>
      <use xlink:href="#DejaVuSans-20" x="608.40625"/>
      <use xlink:href="#DejaVuSans-50" x="640.193359"/>
      <use xlink:href="#DejaVuSans-72" x="698.746094"/>
      <use xlink:href="#DejaVuSans-6f" x="737.609375"/>
      <use xlink:href="#DejaVuSans-70" x="798.791016"/>
      <use xlink:href="#DejaVuSans-6f" x="862.267578"/>
      <use xlink:href="#DejaVuSans-72" x="923.449219"/>
      <use xlink:href="#DejaVuSans-74" x="964.5625"/>
      <use xlink:href="#DejaVuSans-69" x="1003.771484"/>
      <use xlink:href="#DejaVuSans-6f" x="1031.554688"/>
      <use xlink:href="#DejaVuSans-6e" x="1092.736328"/>
      <use xlink:href="#DejaVuSans-3a" x="1156.115234"/>
      <use xlink:href="#DejaVuSans-20" x="1189.806641"/>
      <use xlink:href="#DejaVuSans-30" x="1221.59375"/>
      <use xlink:href="#DejaVuSans-2e" x="1285.216797"/>
      <use xlink:href="#DejaVuSans-37" x="1317.003906"/>
      <use xlink:href="#DejaVuSans-31" x="1380.626953"/>
     </g>
    </g>
   </g>
  </g>
 </g>
 <defs>
  <clipPath id="pbaa28456c3">
   <rect x="61.62625" y="41.394375" width="357.12" height="266.112"/>
  </clipPath>
 </defs>
</svg>
